<?xml version="1.0" standalone="no"?>
<!DOCTYPE svg PUBLIC "-//W3C//DTD SVG 20010904//EN"
 "http://www.w3.org/TR/2001/REC-SVG-20010904/DTD/svg10.dtd">
<svg version="1.0" xmlns="http://www.w3.org/2000/svg"
 width="300.000000pt" height="300.000000pt" viewBox="0 0 300.000000 300.000000"
 preserveAspectRatio="xMidYMid meet">
<metadata>
Created by potrace 1.10, written by Peter Selinger 2001-2011
</metadata>
<g transform="translate(0.000000,300.000000) scale(0.100000,-0.100000)"
fill="#000000" stroke="none">
<path d="M1350 2423 c-1 -26 -33 -47 -65 -45 -19 2 -35 -2 -35 -7 0 -5 -31
-22 -70 -37 -66 -26 -71 -26 -89 -10 -16 14 -26 15 -77 6 -33 -6 -70 -12 -83
-15 -53 -8 -55 -54 -3 -70 17 -5 32 -13 32 -18 0 -11 -47 -57 -58 -57 -10 -1
-46 -32 -62 -56 -33 -47 -115 -134 -126 -134 -18 0 -34 -24 -25 -39 6 -9 -4
-42 -26 -89 -19 -42 -41 -101 -49 -131 -9 -36 -23 -63 -39 -76 -30 -25 -32
-55 -5 -80 29 -26 29 -110 0 -118 -11 -3 -24 -16 -29 -30 -5 -14 -15 -28 -20
-32 -30 -18 5 -75 46 -75 27 0 39 -17 45 -65 5 -40 28 -97 74 -187 15 -30 24
-65 24 -94 0 -39 5 -52 32 -79 26 -27 35 -31 49 -22 14 9 27 2 70 -37 88 -79
187 -141 285 -177 41 -15 55 -26 63 -49 11 -33 42 -40 74 -16 13 10 29 11 70
4 75 -14 330 -3 397 17 91 27 120 33 120 24 0 -15 40 -31 53 -21 7 5 27 13 45
17 35 7 54 31 48 62 -9 45 29 63 119 56 62 -5 73 -3 98 17 23 18 27 29 25 61
-1 26 4 45 17 59 16 17 17 24 7 40 -17 28 -15 37 16 89 41 68 78 156 101 240
10 41 26 78 35 83 9 5 16 15 16 22 0 8 7 19 16 27 11 9 13 20 8 38 -4 14 -6
38 -5 52 1 18 -7 32 -23 42 -18 12 -26 31 -35 79 -6 35 -8 73 -4 86 4 15 -1
30 -14 45 -10 12 -30 47 -43 77 -13 30 -32 67 -42 82 -10 14 -15 34 -12 43 4
8 3 15 -2 13 -5 -2 -9 1 -9 7 0 5 3 9 8 7 11 -3 -4 51 -19 69 -8 8 -14 22 -14
31 0 8 -11 25 -25 38 -22 21 -28 22 -49 10 -23 -12 -30 -8 -122 69 -53 44
-103 81 -111 81 -7 0 -13 4 -13 8 0 5 -18 15 -40 22 -50 16 -64 33 -56 63 4
17 -1 30 -19 47 -22 21 -27 22 -50 10 -14 -7 -25 -17 -25 -21 0 -5 -9 -13 -21
-19 -15 -9 -24 -8 -35 1 -8 6 -61 14 -124 17 -98 4 -111 7 -131 28 -21 23 -89
35 -89 17z m76 -24 c10 -17 -13 -36 -27 -22 -12 12 -4 33 11 33 5 0 12 -5 16
-11z m392 -42 c4 -20 -25 -34 -40 -19 -15 15 -1 44 19 40 10 -2 19 -11 21 -21z
m-114 -21 c167 -47 279 -117 424 -265 117 -119 162 -183 209 -291 51 -119 64
-182 65 -320 1 -99 -4 -142 -21 -209 -39 -151 -116 -284 -225 -391 -54 -52
-62 -46 -10 8 174 178 253 385 241 627 -6 116 -14 151 -53 255 -27 73 -83 175
-91 167 -2 -3 12 -35 32 -71 26 -46 35 -72 30 -88 -4 -16 -3 -19 3 -9 23 32
62 -156 62 -297 0 -220 -78 -415 -229 -571 -53 -54 -55 -70 -9 -71 9 0 20 -4
23 -10 3 -5 20 -10 37 -10 25 0 28 2 19 14 -13 16 2 32 19 21 15 -9 8 -39 -10
-47 -23 -10 -85 -9 -114 2 -23 8 -36 3 -98 -37 -202 -131 -470 -175 -698 -115
-243 65 -415 174 -540 342 -133 179 -191 413 -157 633 33 213 101 351 247 498
133 134 275 211 447 244 101 19 315 14 397 -9z m-688 -71 c-3 -9 -14 -15 -23
-13 -22 4 -30 38 -11 49 18 11 43 -15 34 -36z m-76 21 c0 -21 -21 -31 -30 -15
-5 7 -6 17 -4 21 9 14 34 9 34 -6z m1288 -234 c3 -16 -2 -22 -17 -22 -24 0
-35 15 -27 36 9 23 40 13 44 -14z m-1642 -683 c8 -14 -21 -43 -35 -35 -19 12
-13 46 8 46 11 0 23 -5 27 -11z m1636 -521 c-9 -9 -15 -9 -24 0 -10 10 -10 15
2 22 20 12 38 -6 22 -22z"/>
<path d="M1400 2340 c-30 -4 -80 -14 -112 -24 -31 -9 -62 -15 -70 -13 -7 2 -9
2 -5 -1 5 -2 -22 -20 -59 -38 -36 -19 -69 -33 -71 -30 -3 3 17 16 44 30 26 14
44 25 38 25 -35 2 -286 -161 -272 -176 8 -8 48 17 113 69 33 27 64 48 69 48 6
0 0 -8 -13 -18 -13 -10 -20 -21 -16 -24 8 -9 35 2 29 12 -7 12 145 69 225 85
217 44 439 16 632 -81 70 -35 50 -15 -31 30 -95 54 -221 95 -325 106 -99 11
-97 11 -176 0z"/>
<path d="M1345 2276 c-94 -18 -193 -57 -288 -113 l-78 -46 48 -27 c27 -15 81
-63 122 -105 61 -65 75 -75 83 -61 5 9 19 16 30 16 12 0 18 3 14 8 -4 4 -16 7
-25 7 -24 0 -194 162 -185 176 12 20 165 86 259 113 85 24 90 24 118 8 27 -16
29 -16 41 1 18 23 73 22 159 -3 69 -19 101 -36 92 -49 -3 -7 48 -61 58 -61 2
0 14 9 27 20 l23 20 58 -31 c124 -67 253 -198 313 -321 26 -53 27 -58 11 -81
-15 -24 -15 -28 5 -71 12 -25 30 -48 40 -51 11 -3 22 -15 25 -25 11 -35 8 -96
-6 -119 -12 -20 -12 -25 2 -33 12 -9 14 -22 7 -77 -15 -127 -72 -261 -110
-261 -11 0 -40 -16 -64 -36 -44 -36 -44 -38 -42 -92 2 -44 -1 -57 -15 -66 -16
-9 -23 -6 -48 24 l-29 34 0 211 c0 214 6 262 35 291 15 16 15 18 0 33 -12 12
-37 16 -110 16 -52 0 -95 -3 -95 -6 0 -4 7 -26 16 -50 12 -36 13 -51 3 -87
-16 -58 -29 -62 -29 -10 0 24 -3 61 -6 83 -4 32 -3 37 6 25 10 -13 11 -12 5 5
-4 11 -14 41 -22 67 -9 26 -19 45 -24 43 -4 -3 -10 1 -12 7 -3 7 -6 -12 -6
-42 -1 -54 36 -219 38 -170 1 14 -3 41 -8 60 -15 60 -20 111 -10 105 5 -4 9
-17 9 -31 0 -13 3 -24 8 -24 4 0 7 -15 8 -32 2 -102 10 -168 20 -168 6 0 19
20 28 44 9 24 26 52 36 61 28 25 25 14 -12 -44 -35 -57 -30 -82 8 -38 13 15
24 25 24 21 0 -4 -8 -16 -17 -27 -17 -19 -17 -20 0 -14 26 9 21 -12 -5 -22
-30 -12 -74 -59 -87 -94 -10 -27 -7 -33 56 -102 37 -41 67 -73 68 -72 0 1 -2
106 -5 232 l-5 230 -35 12 c-32 11 -26 12 63 12 60 1 96 -3 92 -9 -3 -5 -11
-7 -18 -4 -7 2 -21 -2 -32 -10 -19 -14 -20 -29 -23 -260 l-3 -246 47 -55 c26
-30 51 -55 56 -55 9 0 83 79 119 128 45 62 109 197 131 279 29 110 29 298 0
404 -39 143 -117 274 -228 380 -112 107 -222 171 -356 209 -95 27 -276 35
-373 16z m535 -1102 c0 -60 -9 -66 -39 -28 -26 33 -26 42 0 71 30 31 39 21 39
-43z m275 -144 c8 -13 -13 -40 -30 -40 -15 0 -28 27 -19 41 7 12 41 11 49 -1z"/>
<path d="M993 2152 c-24 -15 -43 -31 -43 -35 0 -5 20 6 45 24 39 28 51 39 43
39 -2 0 -22 -13 -45 -28z"/>
<path d="M2007 2143 c-11 -11 3 -22 21 -16 9 3 14 3 10 -2 -4 -4 27 -45 70
-90 42 -45 94 -111 116 -146 21 -35 35 -55 32 -44 -15 45 -74 132 -127 187
-32 32 -54 58 -51 58 8 0 -31 41 -49 51 -9 4 -19 6 -22 2z"/>
<path d="M874 2089 c-46 -17 -206 -251 -190 -277 3 -5 -6 -41 -19 -81 -14 -39
-30 -101 -36 -138 -15 -87 -5 -247 21 -338 19 -65 84 -215 93 -215 3 0 -10 35
-29 78 -47 110 -64 182 -71 302 -11 200 55 407 179 560 40 50 34 63 -7 15 -19
-22 -34 -35 -35 -30 0 6 21 31 47 55 26 25 40 36 32 25 -13 -18 -13 -19 3 -7
10 8 16 19 15 25 -1 7 6 12 15 12 9 0 20 4 25 9 4 5 3 6 -4 3 -6 -4 -13 -3
-15 2 -1 5 -13 5 -24 0z m-133 -199 c-23 -35 -41 -68 -41 -73 0 -6 -3 -8 -6
-5 -3 4 2 21 12 40 29 55 65 110 70 105 3 -3 -13 -33 -35 -67z"/>
<path d="M890 2033 c-73 -79 -115 -145 -141 -220 -16 -43 -26 -59 -32 -51 -5
9 -6 6 -3 -7 3 -11 -1 -56 -9 -99 -47 -243 22 -530 170 -712 34 -41 108 -114
155 -153 14 -11 20 -20 14 -21 -21 0 -162 141 -211 212 -128 187 -183 413
-150 618 9 52 19 106 23 120 4 14 4 22 0 18 -4 -3 -16 -39 -27 -80 -27 -103
-28 -295 -1 -398 58 -222 198 -405 401 -525 10 -6 12 -4 6 5 -5 8 -3 11 6 8 8
-3 13 -10 12 -16 -2 -7 4 -9 14 -5 11 4 14 3 9 -5 -5 -8 -1 -10 10 -5 13 5 15
3 9 -7 -5 -8 -4 -11 2 -7 6 4 37 -4 70 -18 234 -95 501 -62 733 90 l72 48 -23
18 c-13 9 -132 137 -264 283 -131 146 -239 264 -240 263 0 -1 2 -103 5 -227
l5 -225 33 -3 c17 -2 32 -7 32 -13 0 -5 -43 -9 -96 -9 -61 0 -93 4 -89 10 3 6
17 10 30 10 14 0 29 8 35 19 6 12 10 112 10 254 l0 234 -64 65 c-68 71 -116
94 -172 85 -19 -3 -34 -2 -34 3 0 15 46 23 105 18 75 -6 111 -34 262 -202 70
-77 148 -163 173 -189 l45 -49 7 39 c12 65 10 69 -31 81 -54 17 -104 64 -329
311 -108 119 -209 230 -224 246 -15 17 -28 33 -28 38 0 4 -5 7 -11 7 -7 0 -9
-12 -5 -35 4 -20 7 -117 6 -217 0 -192 4 -208 46 -208 13 0 24 -4 24 -10 0 -5
-39 -9 -90 -9 -88 0 -118 11 -61 22 33 7 47 41 32 79 -10 26 -55 70 -90 88
-19 10 -16 2 17 -37 47 -55 52 -81 22 -108 -31 -28 -22 -57 20 -68 48 -12 128
-3 148 17 15 15 15 18 -11 42 -21 20 -27 34 -27 68 0 56 14 62 85 35 40 -15
67 -34 100 -72 53 -61 59 -100 20 -137 -14 -13 -25 -29 -25 -36 0 -7 11 -26
25 -42 24 -29 25 -36 25 -160 0 -124 -1 -132 -25 -160 -23 -27 -23 -31 -8 -43
25 -22 157 -19 180 3 16 17 16 19 -10 46 -27 28 -27 29 -27 180 0 88 4 152 9
152 6 0 70 -66 143 -147 156 -174 202 -224 245 -272 31 -33 32 -36 15 -54 -24
-27 -185 -102 -257 -120 -170 -42 -190 -44 -265 -24 -31 8 -62 28 -99 65 -30
28 -58 52 -62 52 -4 0 -22 -12 -39 -27 l-32 -27 -54 28 c-62 33 -133 85 -188
139 -33 33 -38 43 -33 72 8 49 -34 104 -80 105 -26 0 -44 31 -79 133 -33 98
-40 159 -20 176 23 19 21 62 -4 68 -18 5 -20 14 -20 77 0 71 10 96 37 96 7 0
23 10 35 22 30 30 34 89 8 113 -27 25 -26 37 17 117 l36 69 36 -6 c30 -5 40
-2 60 19 18 19 22 31 16 55 -4 17 -3 31 1 31 16 0 70 -44 98 -79 27 -34 28
-40 23 -111 -7 -84 -25 -152 -39 -144 -5 4 -1 -9 9 -27 10 -19 25 -54 34 -78
20 -58 39 -65 38 -14 l-2 38 -7 -35 c-7 -32 -7 -33 -9 -7 0 15 -11 47 -22 69
-21 41 -21 44 -5 95 9 29 18 53 19 53 1 0 2 -18 2 -39 0 -22 -3 -34 -7 -28
-12 19 -2 -68 10 -89 13 -22 13 -26 18 94 3 62 1 91 -6 87 -7 -4 -7 2 0 20 21
56 13 88 -40 147 -43 49 -105 98 -123 98 -3 0 -28 -26 -57 -57z m305 -289
c-22 -53 -27 -38 -7 19 9 27 18 42 20 34 2 -8 -4 -32 -13 -53z m77 -31 c26
-26 48 -52 48 -58 0 -6 -15 -12 -32 -13 -18 0 -46 -2 -63 -4 -24 -2 -31 1 -33
19 -4 25 16 103 26 103 3 0 28 -21 54 -47z m-494 14 c4 -20 -25 -34 -40 -19
-15 15 -1 44 19 40 10 -2 19 -11 21 -21z m-42 -308 c10 -17 -13 -36 -27 -22
-12 12 -4 33 11 33 5 0 12 -5 16 -11z m704 -100 c0 -5 -6 -7 -12 -3 -10 6 -10
4 0 -7 6 -7 12 -19 12 -26 0 -16 -36 -17 -46 -2 -4 8 1 9 17 5 22 -6 23 -6 7
7 -24 19 -23 37 2 37 11 0 20 -5 20 -11z m-162 -597 c3 -16 -2 -22 -17 -22
-24 0 -35 15 -27 36 9 23 40 13 44 -14z"/>
<path d="M1533 2034 c-12 -3 -27 -12 -34 -20 -10 -12 -7 -20 14 -42 39 -40 37
-94 -3 -132 -16 -15 -30 -37 -30 -49 0 -11 14 -33 30 -48 24 -21 30 -34 30
-69 0 -24 -4 -45 -9 -48 -4 -3 -63 56 -130 130 -96 107 -121 140 -116 155 7
20 6 20 -25 4 l-32 -17 29 -31 c16 -18 92 -102 168 -187 77 -85 141 -156 145
-158 10 -4 -1 442 -12 455 -6 7 -21 13 -34 13 -13 0 -24 4 -24 9 0 5 41 8 90
8 50 0 90 -4 90 -9 0 -4 -9 -8 -19 -8 -48 0 -50 -14 -50 -277 l0 -246 78 -79
c43 -43 84 -78 90 -78 18 0 -6 49 -49 98 -22 24 -40 49 -40 53 0 5 -7 9 -16 9
-12 0 -15 6 -11 21 7 26 -13 150 -27 168 -13 17 -17 41 -6 41 5 0 11 -8 14
-18 3 -10 24 -35 46 -56 35 -33 55 -67 31 -52 -5 4 -7 -4 -3 -16 5 -21 5 -21
14 3 5 13 6 43 3 67 -5 36 -9 41 -20 32 -16 -13 -29 -3 -53 39 -13 22 -11 26
15 47 34 28 37 28 53 9 16 -19 54 -19 70 0 11 13 16 13 42 -3 26 -15 31 -15
56 -1 24 13 30 13 54 -1 36 -20 62 -5 66 39 4 36 -12 61 -38 61 -21 0 -50 -31
-50 -53 0 -25 -12 -21 -43 15 -27 33 -28 33 -44 13 l-17 -20 -22 22 c-27 26
-56 30 -74 8 -16 -20 -30 -19 -57 4 -31 26 -33 103 -3 128 41 35 15 63 -62 68
-29 2 -63 1 -75 -1z m7 -226 c0 7 5 12 10 12 6 0 10 -13 10 -30 0 -33 -14 -39
-29 -12 -10 16 -10 16 -11 0 0 -10 -4 -18 -10 -18 -11 0 -14 53 -3 64 4 4 13
-1 20 -10 7 -10 13 -12 13 -6z m138 -17 c-4 -31 -35 -36 -52 -8 -9 14 -7 21 7
32 27 19 49 8 45 -24z m192 14 c0 -16 6 -25 15 -25 8 0 15 -4 15 -10 0 -5 -11
-10 -25 -10 -22 0 -25 4 -25 35 0 19 5 35 10 35 6 0 10 -11 10 -25z m135 15
c3 -5 -2 -10 -12 -10 -11 0 -14 -3 -7 -8 6 -4 13 -15 17 -24 5 -14 1 -18 -18
-18 -22 0 -25 4 -25 35 0 28 4 35 19 35 11 0 23 -4 26 -10z m-217 -27 c-2 -20
-9 -29 -25 -31 -20 -3 -23 1 -23 27 0 27 4 31 26 31 22 0 25 -4 22 -27z"/>
<path d="M940 1725 c0 -5 5 -17 10 -25 5 -8 10 -10 10 -3 0 32 53 -15 79 -71
9 -21 -22 9 -40 38 -10 17 -19 26 -19 19 0 -15 49 -73 60 -70 5 1 16 -7 24
-18 14 -18 14 -15 0 22 -18 46 -59 90 -89 95 -11 1 -23 8 -27 13 -5 7 -8 7 -8
0z"/>
<path d="M1740 1697 c0 -5 7 -15 15 -24 10 -9 13 -24 10 -37 -5 -16 -4 -18 4
-6 11 16 9 20 31 -53 7 -21 14 -37 16 -34 9 8 -35 121 -55 141 -12 11 -21 17
-21 13z"/>
<path d="M2325 1675 c3 -16 9 -89 12 -161 4 -100 2 -150 -11 -212 -30 -150
-103 -293 -209 -408 -27 -30 -44 -54 -39 -54 17 0 124 125 164 192 69 113 106
237 115 380 6 95 -8 227 -28 272 -7 17 -8 15 -4 -9z"/>
<path d="M1672 1580 c12 -69 43 -139 75 -167 20 -19 24 -21 18 -6 -9 21 -34
86 -64 166 -13 31 -26 57 -30 57 -5 0 -4 -23 1 -50z"/>
<path d="M848 1325 c-18 -41 3 -75 46 -75 23 0 38 6 45 17 9 17 11 16 30 -1
17 -15 23 -16 36 -6 8 7 15 22 16 34 0 14 2 16 6 6 17 -47 76 -67 103 -35 12
14 15 14 30 0 20 -18 61 -20 78 -3 7 7 12 24 12 38 0 14 -5 31 -12 38 -19 19
-65 14 -82 -9 l-14 -21 -14 21 c-15 25 -54 27 -80 4 -17 -15 -19 -15 -39 3
-20 18 -22 18 -34 1 -15 -21 -29 -22 -45 -2 -21 25 -69 19 -82 -10z m152 -20
c0 -19 -4 -35 -10 -35 -11 0 -14 53 -3 63 11 12 13 8 13 -28z m-109 13 c0 -10
2 -10 6 0 9 23 23 12 23 -18 0 -33 -14 -39 -29 -12 -10 16 -10 16 -11 0 0 -10
-4 -18 -10 -18 -5 0 -10 14 -10 30 0 20 5 30 15 30 8 0 15 -6 16 -12z m219 5
c0 -5 3 -18 6 -30 5 -20 2 -23 -20 -23 -28 0 -42 20 -32 45 5 15 46 22 46 8z
m84 -5 c5 -10 7 -10 12 0 10 22 24 12 24 -18 0 -30 -14 -40 -24 -17 -5 10 -7
10 -12 0 -10 -23 -24 -13 -24 17 0 30 14 40 24 18z"/>
<path d="M1280 1335 c-11 -13 -10 -21 1 -43 8 -15 18 -30 24 -34 24 -17 64 54
44 78 -15 19 -53 18 -69 -1z m58 -12 c-11 -3 -18 -14 -18 -29 0 -13 -5 -24
-11 -24 -6 0 -8 9 -4 21 5 14 2 25 -6 30 -9 6 -2 8 21 8 19 -1 27 -3 18 -6z"/>
<path d="M1970 768 c-30 -22 -54 -44 -52 -49 1 -6 -3 -9 -10 -8 -27 3 -39 -1
-32 -13 5 -8 2 -9 -10 -5 -11 5 -15 3 -10 -5 5 -8 1 -9 -12 -4 -14 5 -16 4 -8
-4 9 -9 28 -3 75 21 98 49 154 90 138 100 -19 12 -17 13 -79 -33z m64 21 c-8
-14 -95 -69 -108 -69 -7 0 100 76 112 79 2 1 0 -4 -4 -10z"/>
</g>
</svg>
